<svg width="36" height="54" viewBox="0 0 36 54" fill="none" xmlns="http://www.w3.org/2000/svg">
<path d="M32.1026 26.4627C31.6931 26.0532 31.2146 25.708 30.6975 25.4414L30.0552 23.264L17.1898 23.1741L16.6968 24.9259C15.9469 25.0785 15.0252 25.5506 14.46 26.0789L8.66154 19.7297C7.34963 20.3142 6.43113 21.6245 6.43113 23.1548V24.6963L0.00805664 31.386L0.0337486 34.8994L16.0657 52.1277C16.0657 52.1277 32.9552 27.5787 32.9954 27.6268C32.7914 27.2672 32.1748 26.498 32.1026 26.4627Z" fill="#EF9645"/>
<path d="M28.231 24.8311H17.6635C17.3295 24.8311 17.0035 24.8649 16.6888 24.9291L16.5715 24.4827L11.3159 4.46839C11.3159 4.46839 10.6479 1.3259 13.7887 0.659509C16.9296 -0.00849086 17.5976 3.13239 17.5976 3.13239L22.5707 21.7095C23.2869 21.7481 23.9806 21.8107 24.6662 21.8813L27.9757 5.00151C27.9757 5.00151 28.2776 1.80442 31.4763 2.1047C34.6734 2.40659 34.3715 5.60367 34.3715 5.60367L31.0556 23.5257L30.7007 25.4429C29.9556 25.0656 29.1238 24.8311 28.231 24.8311ZM3.07665 21.6196H3.34642C5.04693 21.6196 6.42308 22.9974 6.42308 24.6979V31.3875C6.42308 33.088 5.04693 34.4658 3.34642 34.4658H3.07665C1.37614 34.4658 0 33.088 0 31.3875V24.6979C0 22.9974 1.37614 21.6196 3.07665 21.6196ZM14.1854 26.3727L14.0954 26.4722C13.3343 27.3217 12.8462 28.4168 12.8462 29.6485C12.8462 29.7496 12.867 29.846 12.8751 29.9455C12.9457 31.0342 13.3696 32.0202 14.0441 32.7942C13.93 33.0013 13.7823 33.1844 13.6282 33.361C13.0405 34.0306 12.199 34.4658 11.2404 34.4658C9.46761 34.4658 8.02884 33.027 8.02884 31.2542V21.6196C8.02884 20.9115 8.26489 20.2627 8.65349 19.7312C9.23799 18.9332 10.1742 18.4081 11.2404 18.4081C13.0132 18.4081 14.4519 19.8468 14.4519 21.6196V26.0804C14.354 26.1688 14.2769 26.2779 14.1854 26.3727Z" fill="#FFDC5D"/>
<path d="M3.31114 36.0716C4.95544 36.0716 6.40224 35.227 7.24527 33.9488C7.44278 34.2427 7.68043 34.5044 7.93736 34.7469C9.84019 36.5373 12.8093 36.4233 14.6286 34.6088C14.8727 34.3647 15.1151 34.119 15.3014 33.8252L15.2966 33.8203C15.6194 34.005 16.0577 34.4659 17.6635 34.4659H21.7373C21.1432 34.9139 20.6005 35.4663 20.093 36.0716C18.1211 38.4273 16.8606 41.862 16.8606 45.7062C16.8606 46.1494 17.2203 46.5091 17.6635 46.5091C18.1067 46.5091 18.4664 46.1494 18.4664 45.7062C18.4664 41.6147 20.0015 38.0387 22.2833 36.0716C23.4587 35.0584 24.8268 34.4659 26.2945 34.4659C27.4394 34.5927 27.6546 32.8601 26.4952 32.8601H17.6635C15.8907 32.8601 14.452 31.4213 14.452 29.6485C14.452 27.8758 15.8907 26.437 17.6635 26.437H30.5097C31.8874 26.437 33.1752 27.3941 33.5815 28.7092L35.327 34.4659C35.4924 35.0038 36.0961 37.4703 35.9869 37.9841C35.9869 45.7062 28.4462 53.7351 19.2693 53.7351C8.77236 53.7351 0.250541 45.3353 0.022522 34.893L0.0450026 34.909C0.871974 35.6236 1.93339 36.0716 3.11202 36.0716H3.31114Z" fill="#FFDC5D"/>
</svg>
